<svg xmlns="http://www.w3.org/2000/svg" viewBox="0 0 500 500" width="500" height="500" preserveAspectRatio="xMidYMid meet" style="width: 100%; height: 100%; transform: translate3d(0px, 0px, 0px);"><defs><clipPath id="__lottie_element_248"><rect width="500" height="500" x="0" y="0"></rect></clipPath><clipPath id="__lottie_element_250"><path d="M0,0 L500,0 L500,500 L0,500z"></path></clipPath></defs><g clip-path="url(#__lottie_element_248)"><g transform="matrix(4.5,0,0,4.5,207.25,194.875)" opacity="1" style="display: block;"><g opacity="1" transform="matrix(1,0,0,1,0,0)"><path stroke-linecap="round" stroke-linejoin="round" fill-opacity="0" stroke="rgb(226,226,226)" stroke-opacity="1" stroke-width="5.6000000000000005" d=" M28.945999145507812,-27.937000274658203 C28.966999053955078,-9.605999946594238 29.014999389648438,33.75299835205078 29.034000396728516,50.236000061035156"></path></g></g><g transform="matrix(3.1819803714752197,-3.1819803714752197,3.1819803714752197,3.1819803714752197,363.2012939453125,326.5682373046875)" opacity="1" style="display: block;"><g opacity="1" transform="matrix(1,0,0,1,0,0)"><path stroke-linecap="round" stroke-linejoin="round" fill-opacity="0" stroke="rgb(226,226,226)" stroke-opacity="1" stroke-width="5.6000000000000005" d=" M-20.548999786376953,-4.929999828338623 C-20.548999786376953,-4.929999828338623 -20.548999786376953,12.746999740600586 -20.548999786376953,12.746999740600586 C-20.548999786376953,12.746999740600586 -2.927000045776367,12.746999740600586 -2.927000045776367,12.746999740600586"></path></g></g><g transform="matrix(-4.5,0,0,-4.5,292.75,305.125)" opacity="1" style="display: block;"><g opacity="1" transform="matrix(1,0,0,1,0,0)"><path stroke-linecap="round" stroke-linejoin="round" fill-opacity="0" stroke="rgb(226,226,226)" stroke-opacity="1" stroke-width="5.6000000000000005" d=" M28.945999145507812,-27.937000274658203 C28.966999053955078,-9.605999946594238 29.014999389648438,33.75299835205078 29.034000396728516,50.236000061035156"></path></g></g><g transform="matrix(-3.1819803714752197,3.1819803714752197,-3.1819803714752197,-3.1819803714752197,136.79869079589844,173.43174743652344)" opacity="1" style="display: block;"><g opacity="1" transform="matrix(1,0,0,1,0,0)"><path stroke-linecap="round" stroke-linejoin="round" fill-opacity="0" stroke="rgb(226,226,226)" stroke-opacity="1" stroke-width="5.6000000000000005" d=" M-20.548999786376953,-4.929999828338623 C-20.548999786376953,-4.929999828338623 -20.548999786376953,12.746999740600586 -20.548999786376953,12.746999740600586 C-20.548999786376953,12.746999740600586 -2.927000045776367,12.746999740600586 -2.927000045776367,12.746999740600586"></path></g></g><g clip-path="url(#__lottie_element_250)" transform="matrix(1,0,0,1,0,0)" opacity="1" style="display: block;"></g></g></svg>